<?xml version="1.0" standalone="no"?>
<!DOCTYPE svg PUBLIC "-//W3C//DTD SVG 20010904//EN"
 "http://www.w3.org/TR/2001/REC-SVG-20010904/DTD/svg10.dtd">
<svg version="1.0" xmlns="http://www.w3.org/2000/svg"
 width="225.000000pt" height="225.000000pt" viewBox="0 0 225.000000 225.000000"
 preserveAspectRatio="xMidYMid meet">
<metadata>
Created by potrace 1.16, written by Peter Selinger 2001-2019
</metadata>
<g transform="translate(0.000000,225.000000) scale(0.100000,-0.100000)"
fill="#000000" stroke="none">
<path d="M1012 2030 c-238 -43 -442 -198 -541 -411 -32 -68 -61 -167 -61 -209
0 -21 -11 -30 -62 -55 -68 -34 -114 -87 -128 -151 -14 -57 -12 -297 2 -352 17
-69 95 -145 166 -162 29 -6 66 -10 83 -8 26 4 32 1 44 -29 23 -55 62 -98 117
-129 l53 -29 427 0 c236 0 428 -3 428 -7 0 -14 -89 -79 -145 -104 -50 -23 -77
-28 -183 -33 -135 -7 -152 -14 -152 -72 0 -59 41 -74 184 -66 157 9 255 49
361 148 76 71 127 156 152 252 15 58 21 67 41 67 99 0 207 81 230 172 17 69
15 303 -3 365 -19 63 -76 124 -139 148 -39 15 -46 22 -46 44 0 40 -28 138 -58
205 -85 189 -277 349 -481 401 -80 20 -218 27 -289 15z m240 -145 c108 -22
192 -70 282 -158 44 -42 77 -79 74 -82 -3 -3 -17 -1 -32 5 -37 14 -865 14
-902 0 -15 -6 -29 -9 -31 -6 -2 2 21 31 52 64 146 158 348 222 557 177z m316
-381 c50 -35 52 -47 52 -424 0 -388 -1 -392 -63 -430 -30 -19 -53 -20 -430
-20 -439 0 -439 0 -477 63 -19 30 -20 53 -20 385 0 294 3 358 15 382 32 62 19
60 480 60 365 0 423 -2 443 -16z m-1080 -471 l-3 -208 -32 -3 c-42 -4 -69 11
-89 49 -12 25 -15 58 -12 176 3 145 3 145 31 169 20 17 40 24 68 24 l39 0 -2
-207z m1379 183 c28 -24 28 -24 31 -169 3 -118 0 -151 -12 -176 -20 -38 -47
-53 -89 -49 l-32 3 -3 208 -2 207 39 0 c28 0 48 -7 68 -24z"/>
<path d="M897 1270 c-25 -20 -27 -27 -27 -100 0 -70 2 -81 22 -94 35 -25 73
-20 98 12 19 23 21 37 18 94 -4 73 -15 92 -58 103 -18 4 -34 0 -53 -15z"/>
<path d="M1282 1280 c-29 -12 -42 -48 -42 -114 0 -90 57 -133 118 -90 20 13
22 24 22 94 0 73 -2 80 -26 99 -29 23 -38 24 -72 11z"/>
<path d="M980 883 c-15 -19 -19 -35 -15 -53 11 -44 30 -50 160 -50 130 0 149
6 160 50 4 18 0 34 -15 53 -21 27 -23 27 -145 27 -122 0 -124 0 -145 -27z"/>
</g>
</svg>
